<mxfile host="app.diagrams.net" agent="Mozilla/5.0 (Macintosh; Intel Mac OS X 10_15_7) AppleWebKit/537.36 (KHTML, like Gecko) Chrome/131.0.0.0 Safari/537.36 Edg/131.0.0.0" version="26.0.3">
  <diagram name="第 1 页" id="nbpXneUM_ZZ2GpS0kgQJ">
    <mxGraphModel dx="834" dy="721" grid="1" gridSize="10" guides="1" tooltips="1" connect="1" arrows="1" fold="1" page="1" pageScale="1" pageWidth="827" pageHeight="1169" math="0" shadow="0">
      <root>
        <mxCell id="0" />
        <mxCell id="1" parent="0" />
        <mxCell id="8yUNU7MjFQoFO-y7IGcP-8" value="" style="group" parent="1" vertex="1" connectable="0">
          <mxGeometry x="230" y="90" width="735" height="780" as="geometry" />
        </mxCell>
        <mxCell id="8yUNU7MjFQoFO-y7IGcP-1" value="" style="rounded=0;whiteSpace=wrap;html=1;dashed=1;" parent="8yUNU7MjFQoFO-y7IGcP-8" vertex="1">
          <mxGeometry width="720" height="780" as="geometry" />
        </mxCell>
        <mxCell id="8yUNU7MjFQoFO-y7IGcP-7" value="&lt;p style=&quot;margin-top: 0pt; margin-bottom: 0pt; margin-left: 0in; direction: ltr; unicode-bidi: embed; word-break: normal;&quot;&gt;&lt;span style=&quot;color: white;&quot;&gt;&lt;font face=&quot;宋体&quot; style=&quot;color: rgb(0, 0, 0); font-size: 30px;&quot;&gt;面向商业用户的空调电力负荷分解与分析系统&lt;/font&gt;&lt;/span&gt;&lt;/p&gt;" style="text;html=1;align=center;verticalAlign=middle;whiteSpace=wrap;rounded=0;" parent="8yUNU7MjFQoFO-y7IGcP-8" vertex="1">
          <mxGeometry x="45" y="11.87" width="630" height="25.43" as="geometry" />
        </mxCell>
        <mxCell id="8yUNU7MjFQoFO-y7IGcP-19" value="&lt;span style=&quot;font-size: 20px;&quot;&gt;后端技术栈&lt;/span&gt;" style="rounded=1;whiteSpace=wrap;html=1;verticalAlign=top;" parent="8yUNU7MjFQoFO-y7IGcP-8" vertex="1">
          <mxGeometry x="370" y="650" width="325" height="100" as="geometry" />
        </mxCell>
        <mxCell id="8yUNU7MjFQoFO-y7IGcP-20" value="&lt;span style=&quot;font-size: 14px;&quot;&gt;SpringBoot&lt;/span&gt;" style="rounded=1;whiteSpace=wrap;html=1;" parent="8yUNU7MjFQoFO-y7IGcP-8" vertex="1">
          <mxGeometry x="381" y="695" width="90" height="40" as="geometry" />
        </mxCell>
        <mxCell id="8yUNU7MjFQoFO-y7IGcP-22" value="&lt;span style=&quot;font-size: 14px;&quot;&gt;gRPC&lt;/span&gt;" style="rounded=1;whiteSpace=wrap;html=1;" parent="8yUNU7MjFQoFO-y7IGcP-8" vertex="1">
          <mxGeometry x="487.5" y="695" width="90" height="40" as="geometry" />
        </mxCell>
        <mxCell id="8yUNU7MjFQoFO-y7IGcP-23" value="&lt;span style=&quot;font-size: 14px;&quot;&gt;Kafka&lt;/span&gt;" style="rounded=1;whiteSpace=wrap;html=1;" parent="8yUNU7MjFQoFO-y7IGcP-8" vertex="1">
          <mxGeometry x="597" y="695" width="90" height="40" as="geometry" />
        </mxCell>
        <mxCell id="8yUNU7MjFQoFO-y7IGcP-5" value="&lt;font style=&quot;font-size: 20px;&quot;&gt;负荷基线选择模块&lt;/font&gt;" style="rounded=1;whiteSpace=wrap;html=1;verticalAlign=top;" parent="8yUNU7MjFQoFO-y7IGcP-8" vertex="1">
          <mxGeometry x="295" y="440" width="400" height="190" as="geometry" />
        </mxCell>
        <mxCell id="8yUNU7MjFQoFO-y7IGcP-4" value="&lt;font style=&quot;font-size: 20px;&quot;&gt;空调负荷分解模块&lt;/font&gt;" style="rounded=1;whiteSpace=wrap;html=1;verticalAlign=top;" parent="8yUNU7MjFQoFO-y7IGcP-8" vertex="1">
          <mxGeometry x="295" y="190" width="400" height="240" as="geometry" />
        </mxCell>
        <mxCell id="8yUNU7MjFQoFO-y7IGcP-3" value="&lt;font style=&quot;font-size: 20px;&quot;&gt;负荷数据聚类模块&lt;/font&gt;" style="rounded=1;whiteSpace=wrap;html=1;verticalAlign=top;" parent="8yUNU7MjFQoFO-y7IGcP-8" vertex="1">
          <mxGeometry x="30" y="340" width="240" height="290" as="geometry" />
        </mxCell>
        <mxCell id="8yUNU7MjFQoFO-y7IGcP-32" value="&lt;font style=&quot;font-size: 20px;&quot;&gt;数据处理模块&lt;/font&gt;" style="rounded=1;whiteSpace=wrap;html=1;verticalAlign=top;" parent="8yUNU7MjFQoFO-y7IGcP-8" vertex="1">
          <mxGeometry x="30" y="180" width="240" height="145" as="geometry" />
        </mxCell>
        <mxCell id="8yUNU7MjFQoFO-y7IGcP-24" value="&lt;meta charset=&quot;utf-8&quot;&gt;&lt;span style=&quot;color: rgb(0, 0, 0); font-family: Helvetica; font-size: 14px; font-style: normal; font-variant-ligatures: normal; font-variant-caps: normal; font-weight: 400; letter-spacing: normal; orphans: 2; text-align: center; text-indent: 0px; text-transform: none; widows: 2; word-spacing: 0px; -webkit-text-stroke-width: 0px; white-space: normal; background-color: rgb(251, 251, 251); text-decoration-thickness: initial; text-decoration-style: initial; text-decoration-color: initial; display: inline !important; float: none;&quot;&gt;数据集上传&lt;/span&gt;" style="rounded=1;whiteSpace=wrap;html=1;" parent="8yUNU7MjFQoFO-y7IGcP-8" vertex="1">
          <mxGeometry x="90" y="220" width="120" height="40" as="geometry" />
        </mxCell>
        <mxCell id="8yUNU7MjFQoFO-y7IGcP-26" value="&lt;span style=&quot;color: rgb(0, 0, 0); font-family: Helvetica; font-size: 14px; font-style: normal; font-variant-ligatures: normal; font-variant-caps: normal; font-weight: 400; letter-spacing: normal; orphans: 2; text-align: center; text-indent: 0px; text-transform: none; widows: 2; word-spacing: 0px; -webkit-text-stroke-width: 0px; white-space: normal; background-color: rgb(251, 251, 251); text-decoration-thickness: initial; text-decoration-style: initial; text-decoration-color: initial; float: none; display: inline !important;&quot;&gt;小波变换&lt;/span&gt;" style="rounded=1;whiteSpace=wrap;html=1;" parent="8yUNU7MjFQoFO-y7IGcP-8" vertex="1">
          <mxGeometry x="320" y="240" width="120" height="50" as="geometry" />
        </mxCell>
        <mxCell id="8yUNU7MjFQoFO-y7IGcP-27" value="&lt;span style=&quot;color: rgb(0, 0, 0); font-family: Helvetica; font-size: 14px; font-style: normal; font-variant-ligatures: normal; font-variant-caps: normal; font-weight: 400; letter-spacing: normal; orphans: 2; text-align: center; text-indent: 0px; text-transform: none; widows: 2; word-spacing: 0px; -webkit-text-stroke-width: 0px; white-space: normal; background-color: rgb(251, 251, 251); text-decoration-thickness: initial; text-decoration-style: initial; text-decoration-color: initial; float: none; display: inline !important;&quot;&gt;多基线计算&lt;/span&gt;" style="rounded=1;whiteSpace=wrap;html=1;" parent="8yUNU7MjFQoFO-y7IGcP-8" vertex="1">
          <mxGeometry x="320" y="490" width="120" height="50" as="geometry" />
        </mxCell>
        <mxCell id="8yUNU7MjFQoFO-y7IGcP-28" value="&lt;span style=&quot;color: rgb(0, 0, 0); font-family: Helvetica; font-size: 14px; font-style: normal; font-variant-ligatures: normal; font-variant-caps: normal; font-weight: 400; letter-spacing: normal; orphans: 2; text-align: center; text-indent: 0px; text-transform: none; widows: 2; word-spacing: 0px; -webkit-text-stroke-width: 0px; white-space: normal; background-color: rgb(251, 251, 251); text-decoration-thickness: initial; text-decoration-style: initial; text-decoration-color: initial; float: none; display: inline !important;&quot;&gt;数据处理&lt;/span&gt;" style="rounded=1;whiteSpace=wrap;html=1;" parent="8yUNU7MjFQoFO-y7IGcP-8" vertex="1">
          <mxGeometry x="160" y="270" width="100" height="40" as="geometry" />
        </mxCell>
        <mxCell id="8yUNU7MjFQoFO-y7IGcP-29" value="&lt;span style=&quot;color: rgb(0, 0, 0); font-family: Helvetica; font-size: 14px; font-style: normal; font-variant-ligatures: normal; font-variant-caps: normal; font-weight: 400; letter-spacing: normal; orphans: 2; text-align: center; text-indent: 0px; text-transform: none; widows: 2; word-spacing: 0px; -webkit-text-stroke-width: 0px; white-space: normal; background-color: rgb(251, 251, 251); text-decoration-thickness: initial; text-decoration-style: initial; text-decoration-color: initial; float: none; display: inline !important;&quot;&gt;数据归一化&lt;/span&gt;" style="rounded=1;whiteSpace=wrap;html=1;" parent="8yUNU7MjFQoFO-y7IGcP-8" vertex="1">
          <mxGeometry x="45" y="270" width="100" height="40" as="geometry" />
        </mxCell>
        <mxCell id="8yUNU7MjFQoFO-y7IGcP-30" value="&lt;span style=&quot;color: rgb(0, 0, 0); font-family: Helvetica; font-size: 14px; font-style: normal; font-variant-ligatures: normal; font-variant-caps: normal; font-weight: 400; letter-spacing: normal; orphans: 2; text-align: center; text-indent: 0px; text-transform: none; widows: 2; word-spacing: 0px; -webkit-text-stroke-width: 0px; white-space: normal; background-color: rgb(251, 251, 251); text-decoration-thickness: initial; text-decoration-style: initial; text-decoration-color: initial; float: none; display: inline !important;&quot;&gt;特征选择&lt;/span&gt;" style="rounded=1;whiteSpace=wrap;html=1;" parent="8yUNU7MjFQoFO-y7IGcP-8" vertex="1">
          <mxGeometry x="320" y="300" width="120" height="50" as="geometry" />
        </mxCell>
        <mxCell id="8yUNU7MjFQoFO-y7IGcP-31" value="&lt;span style=&quot;color: rgb(0, 0, 0); font-family: Helvetica; font-size: 14px; font-style: normal; font-variant-ligatures: normal; font-variant-caps: normal; font-weight: 400; letter-spacing: normal; orphans: 2; text-align: center; text-indent: 0px; text-transform: none; widows: 2; word-spacing: 0px; -webkit-text-stroke-width: 0px; white-space: normal; background-color: rgb(251, 251, 251); text-decoration-thickness: initial; text-decoration-style: initial; text-decoration-color: initial; float: none; display: inline !important;&quot;&gt;融合气象数据和&lt;/span&gt;&lt;div&gt;&lt;span style=&quot;color: rgb(0, 0, 0); font-family: Helvetica; font-size: 14px; font-style: normal; font-variant-ligatures: normal; font-variant-caps: normal; font-weight: 400; letter-spacing: normal; orphans: 2; text-align: center; text-indent: 0px; text-transform: none; widows: 2; word-spacing: 0px; -webkit-text-stroke-width: 0px; white-space: normal; background-color: rgb(251, 251, 251); text-decoration-thickness: initial; text-decoration-style: initial; text-decoration-color: initial; float: none; display: inline !important;&quot;&gt;用户行为数据&lt;/span&gt;&lt;/div&gt;" style="rounded=1;whiteSpace=wrap;html=1;" parent="8yUNU7MjFQoFO-y7IGcP-8" vertex="1">
          <mxGeometry x="320" y="560" width="120" height="50" as="geometry" />
        </mxCell>
        <mxCell id="8yUNU7MjFQoFO-y7IGcP-33" value="&lt;span style=&quot;color: rgb(0, 0, 0); font-family: Helvetica; font-size: 14px; font-style: normal; font-variant-ligatures: normal; font-variant-caps: normal; font-weight: 400; letter-spacing: normal; orphans: 2; text-align: center; text-indent: 0px; text-transform: none; widows: 2; word-spacing: 0px; -webkit-text-stroke-width: 0px; white-space: normal; background-color: rgb(251, 251, 251); text-decoration-thickness: initial; text-decoration-style: initial; text-decoration-color: initial; float: none; display: inline !important;&quot;&gt;KMeans算法&lt;/span&gt;" style="rounded=1;whiteSpace=wrap;html=1;" parent="8yUNU7MjFQoFO-y7IGcP-8" vertex="1">
          <mxGeometry x="64" y="390" width="176" height="50" as="geometry" />
        </mxCell>
        <mxCell id="8yUNU7MjFQoFO-y7IGcP-34" value="" style="rounded=1;whiteSpace=wrap;html=1;" parent="8yUNU7MjFQoFO-y7IGcP-8" vertex="1">
          <mxGeometry x="43" y="452.5" width="215" height="165" as="geometry" />
        </mxCell>
        <mxCell id="8yUNU7MjFQoFO-y7IGcP-35" value="&lt;span style=&quot;color: rgb(0, 0, 0); font-family: Helvetica; font-size: 14px; font-style: normal; font-variant-ligatures: normal; font-variant-caps: normal; font-weight: 400; letter-spacing: normal; orphans: 2; text-align: center; text-indent: 0px; text-transform: none; widows: 2; word-spacing: 0px; -webkit-text-stroke-width: 0px; white-space: normal; background-color: rgb(251, 251, 251); text-decoration-thickness: initial; text-decoration-style: initial; text-decoration-color: initial; float: none; display: inline !important;&quot;&gt;Spearman 距离&lt;/span&gt;" style="rounded=1;whiteSpace=wrap;html=1;" parent="8yUNU7MjFQoFO-y7IGcP-8" vertex="1">
          <mxGeometry x="64" y="470" width="176" height="40" as="geometry" />
        </mxCell>
        <mxCell id="8yUNU7MjFQoFO-y7IGcP-36" value="&lt;span style=&quot;color: rgb(0, 0, 0); font-family: Helvetica; font-size: 14px; font-style: normal; font-variant-ligatures: normal; font-variant-caps: normal; font-weight: 400; letter-spacing: normal; orphans: 2; text-align: center; text-indent: 0px; text-transform: none; widows: 2; word-spacing: 0px; -webkit-text-stroke-width: 0px; white-space: normal; background-color: rgb(251, 251, 251); text-decoration-thickness: initial; text-decoration-style: initial; text-decoration-color: initial; float: none; display: inline !important;&quot;&gt;动态时间规整&lt;/span&gt;" style="rounded=1;whiteSpace=wrap;html=1;" parent="8yUNU7MjFQoFO-y7IGcP-8" vertex="1">
          <mxGeometry x="64" y="520" width="176" height="40" as="geometry" />
        </mxCell>
        <mxCell id="8yUNU7MjFQoFO-y7IGcP-38" value="&lt;span style=&quot;color: rgb(0, 0, 0); font-family: Helvetica; font-size: 14px; font-style: normal; font-variant-ligatures: normal; font-variant-caps: normal; font-weight: 400; letter-spacing: normal; orphans: 2; text-align: center; text-indent: 0px; text-transform: none; widows: 2; word-spacing: 0px; -webkit-text-stroke-width: 0px; white-space: normal; background-color: rgb(251, 251, 251); text-decoration-thickness: initial; text-decoration-style: initial; text-decoration-color: initial; float: none; display: inline !important;&quot;&gt;混合距离度量&lt;/span&gt;" style="rounded=1;whiteSpace=wrap;html=1;" parent="8yUNU7MjFQoFO-y7IGcP-8" vertex="1">
          <mxGeometry x="64" y="570" width="176" height="40" as="geometry" />
        </mxCell>
        <mxCell id="8yUNU7MjFQoFO-y7IGcP-39" value="&lt;span style=&quot;font-size: 14px;&quot;&gt;傅里叶变换&lt;/span&gt;" style="rounded=1;whiteSpace=wrap;html=1;" parent="8yUNU7MjFQoFO-y7IGcP-8" vertex="1">
          <mxGeometry x="320" y="360" width="120" height="50" as="geometry" />
        </mxCell>
        <mxCell id="8yUNU7MjFQoFO-y7IGcP-40" value="&lt;span style=&quot;font-size: 14px;&quot;&gt;模型算法&lt;/span&gt;" style="rounded=1;whiteSpace=wrap;html=1;verticalAlign=top;" parent="8yUNU7MjFQoFO-y7IGcP-8" vertex="1">
          <mxGeometry x="471" y="240" width="199" height="170" as="geometry" />
        </mxCell>
        <mxCell id="8yUNU7MjFQoFO-y7IGcP-41" value="&lt;span style=&quot;font-size: 14px;&quot;&gt;模型算法&lt;/span&gt;" style="rounded=1;whiteSpace=wrap;html=1;verticalAlign=top;" parent="8yUNU7MjFQoFO-y7IGcP-8" vertex="1">
          <mxGeometry x="465.5" y="490" width="210" height="120" as="geometry" />
        </mxCell>
        <mxCell id="8yUNU7MjFQoFO-y7IGcP-42" value="&lt;span style=&quot;font-size: 14px;&quot;&gt;还没想好用什么&lt;/span&gt;" style="rounded=1;whiteSpace=wrap;html=1;" parent="8yUNU7MjFQoFO-y7IGcP-8" vertex="1">
          <mxGeometry x="510.5" y="275" width="120" height="50" as="geometry" />
        </mxCell>
        <mxCell id="8yUNU7MjFQoFO-y7IGcP-43" value="&lt;span style=&quot;font-size: 14px;&quot;&gt;还没想好用什么&lt;/span&gt;" style="rounded=1;whiteSpace=wrap;html=1;" parent="8yUNU7MjFQoFO-y7IGcP-8" vertex="1">
          <mxGeometry x="510.5" y="340" width="120" height="50" as="geometry" />
        </mxCell>
        <mxCell id="8yUNU7MjFQoFO-y7IGcP-44" value="&lt;span style=&quot;font-size: 14px;&quot;&gt;还没想好用什么&lt;/span&gt;" style="rounded=1;whiteSpace=wrap;html=1;" parent="8yUNU7MjFQoFO-y7IGcP-8" vertex="1">
          <mxGeometry x="510.5" y="540" width="120" height="50" as="geometry" />
        </mxCell>
        <mxCell id="8yUNU7MjFQoFO-y7IGcP-6" value="&lt;font style=&quot;font-size: 20px;&quot;&gt;数据存储模块&lt;/font&gt;" style="rounded=1;whiteSpace=wrap;html=1;verticalAlign=top;" parent="1" vertex="1">
          <mxGeometry x="265" y="740" width="325" height="100" as="geometry" />
        </mxCell>
        <mxCell id="8yUNU7MjFQoFO-y7IGcP-14" value="" style="group" parent="1" vertex="1" connectable="0">
          <mxGeometry x="260" y="150" width="660" height="100" as="geometry" />
        </mxCell>
        <mxCell id="8yUNU7MjFQoFO-y7IGcP-2" value="&lt;span style=&quot;font-size: 20px;&quot;&gt;用户管理模块&lt;/span&gt;" style="rounded=1;whiteSpace=wrap;html=1;verticalAlign=top;" parent="8yUNU7MjFQoFO-y7IGcP-14" vertex="1">
          <mxGeometry width="660" height="100" as="geometry" />
        </mxCell>
        <mxCell id="8yUNU7MjFQoFO-y7IGcP-9" value="&lt;font style=&quot;font-size: 14px;&quot;&gt;用户注册&lt;/font&gt;" style="rounded=1;whiteSpace=wrap;html=1;" parent="8yUNU7MjFQoFO-y7IGcP-14" vertex="1">
          <mxGeometry x="34" y="40" width="120" height="50" as="geometry" />
        </mxCell>
        <mxCell id="8yUNU7MjFQoFO-y7IGcP-10" value="&lt;font style=&quot;font-size: 14px;&quot;&gt;用户登录&lt;/font&gt;" style="rounded=1;whiteSpace=wrap;html=1;" parent="8yUNU7MjFQoFO-y7IGcP-14" vertex="1">
          <mxGeometry x="190" y="40" width="120" height="50" as="geometry" />
        </mxCell>
        <mxCell id="8yUNU7MjFQoFO-y7IGcP-11" value="&lt;font style=&quot;font-size: 14px;&quot;&gt;用户鉴权&lt;/font&gt;" style="rounded=1;whiteSpace=wrap;html=1;" parent="8yUNU7MjFQoFO-y7IGcP-14" vertex="1">
          <mxGeometry x="510" y="40" width="120" height="50" as="geometry" />
        </mxCell>
        <mxCell id="8yUNU7MjFQoFO-y7IGcP-13" value="&lt;font style=&quot;font-size: 14px;&quot;&gt;信息修改&lt;/font&gt;" style="rounded=1;whiteSpace=wrap;html=1;" parent="8yUNU7MjFQoFO-y7IGcP-14" vertex="1">
          <mxGeometry x="350" y="40" width="120" height="50" as="geometry" />
        </mxCell>
        <mxCell id="8yUNU7MjFQoFO-y7IGcP-16" value="&lt;font style=&quot;font-size: 14px;&quot;&gt;MySQL&lt;/font&gt;&lt;span style=&quot;color: rgba(0, 0, 0, 0); font-family: monospace; font-size: 0px; text-align: start; text-wrap-mode: nowrap;&quot;&gt;%3CmxGraphModel%3E%3Croot%3E%3CmxCell%20id%3D%220%22%2F%3E%3CmxCell%20id%3D%221%22%20parent%3D%220%22%2F%3E%3CmxCell%20id%3D%222%22%20value%3D%22%26lt%3Bfont%20style%3D%26quot%3Bfont-size%3A%2014px%3B%26quot%3B%26gt%3B%E7%94%A8%E6%88%B7%E7%AE%A1%E7%90%86%E6%A8%A1%E5%9D%97%26lt%3B%2Ffont%26gt%3B%22%20style%3D%22rounded%3D1%3BwhiteSpace%3Dwrap%3Bhtml%3D1%3B%22%20vertex%3D%221%22%20parent%3D%221%22%3E%3CmxGeometry%20x%3D%22294%22%20y%3D%22190%22%20width%3D%22120%22%20height%3D%2250%22%20as%3D%22geometry%22%2F%3E%3C%2FmxCell%3E%3C%2Froot%3E%3C%2FmxGraphModel%3E&lt;/span&gt;" style="rounded=1;whiteSpace=wrap;html=1;" parent="1" vertex="1">
          <mxGeometry x="294" y="780" width="120" height="50" as="geometry" />
        </mxCell>
        <mxCell id="8yUNU7MjFQoFO-y7IGcP-17" value="&lt;span style=&quot;font-size: 14px;&quot;&gt;Redis&lt;/span&gt;" style="rounded=1;whiteSpace=wrap;html=1;" parent="1" vertex="1">
          <mxGeometry x="440" y="780" width="120" height="50" as="geometry" />
        </mxCell>
      </root>
    </mxGraphModel>
  </diagram>
</mxfile>
